<svg width="167" height="61" viewBox="0 0 167 61" fill="none" xmlns="http://www.w3.org/2000/svg">
<path d="M20.9264 28.9568C20.8645 29.9776 20.8027 31.0139 20.7408 32.0656C20.6789 33.0864 20.5088 34.0763 20.2304 35.0352C19.9829 35.9941 19.5808 36.8603 19.024 37.6336C18.4981 38.4069 17.7403 39.0256 16.7504 39.4896C15.8843 39.9227 14.9563 40.2165 13.9664 40.3712C12.9765 40.5568 11.9867 40.6341 10.9968 40.6032C10.0069 40.5723 9.048 40.4176 8.12 40.1392C7.192 39.8917 6.3568 39.536 5.6144 39.072C4.872 38.608 4.2688 38.0048 3.8048 37.2624C3.3408 36.52 2.9696 35.7157 2.6912 34.8496C2.44373 33.9835 2.2736 33.0864 2.1808 32.1584C2.088 31.2304 2.02613 30.3643 1.9952 29.56C1.87147 27.4256 1.87147 25.3221 1.9952 23.2496C1.9952 22.8475 1.9952 22.3989 1.9952 21.904C1.9952 21.3781 2.02613 20.8677 2.088 20.3728C2.1808 19.8779 2.32 19.4293 2.5056 19.0272C2.6912 18.5941 3.00053 18.2693 3.4336 18.0528C4.3616 17.5579 5.21227 17.5269 5.9856 17.96C6.78987 18.3931 7.26933 19.2901 7.424 20.6512C7.5168 21.3627 7.54773 22.1515 7.5168 23.0176C7.5168 23.8837 7.54773 24.6725 7.6096 25.384C7.64053 26.4357 7.67147 27.5803 7.7024 28.8176C7.73333 30.024 7.90347 31.1067 8.2128 32.0656C8.55307 33.0245 9.0944 33.7515 9.8368 34.2464C10.6101 34.7104 11.7547 34.7259 13.2704 34.2928C13.9819 34.0763 14.4459 33.5349 14.6624 32.6688C14.9099 31.8027 15.0336 30.5189 15.0336 28.8176C15.0336 28.0752 15.0181 27.2555 14.9872 26.3584C14.9563 25.4613 14.9408 24.5797 14.9408 23.7136C14.9408 22.8165 14.9563 21.9968 14.9872 21.2544C15.0491 20.4811 15.1419 19.8933 15.2656 19.4912C15.4203 18.9344 15.7451 18.5168 16.24 18.2384C16.7349 17.96 17.2608 17.8208 17.8176 17.8208C18.3744 17.7899 18.9003 17.8981 19.3952 18.1456C19.8901 18.3931 20.2304 18.7952 20.416 19.352C20.6016 19.8469 20.7253 20.4811 20.7872 21.2544C20.88 21.9968 20.9419 22.8165 20.9728 23.7136C21.0037 24.5797 21.0037 25.4768 20.9728 26.4048C20.9728 27.3019 20.9573 28.1525 20.9264 28.9568ZM36.8028 19.12C37.6999 19.4912 38.5196 20.0325 39.262 20.744C40.0044 21.4245 40.6385 22.2133 41.1644 23.1104C41.7212 24.0075 42.1388 24.9819 42.4172 26.0336C42.7265 27.0544 42.8812 28.0907 42.8812 29.1424C42.9121 30.72 42.5409 32.2048 41.7676 33.5968C41.0252 34.9888 39.8033 36.056 38.102 36.7984C36.8028 37.3243 35.4572 37.7264 34.0652 38.0048C32.7041 38.2523 31.2812 38.4224 29.7964 38.5152V47.0064C29.7964 47.192 29.7655 47.3621 29.7036 47.5168C29.6727 47.6715 29.6572 47.8261 29.6572 47.9808C29.5953 48.2901 29.518 48.5685 29.4252 48.816C29.3633 49.0635 29.2705 49.3264 29.1468 49.6048C29.0231 49.7904 28.8993 49.9605 28.7756 50.1152C28.6519 50.2699 28.5127 50.4245 28.358 50.5792C27.6156 50.9504 26.8423 51.0277 26.038 50.8112C25.5431 50.7803 25.1409 50.6256 24.8316 50.3472C24.5532 50.0688 24.3521 49.7749 24.2284 49.4656C24.1047 49.1563 23.9964 48.8005 23.9036 48.3984C23.8727 48.2437 23.8417 48.0891 23.8108 47.9344C23.8108 47.8107 23.8108 47.6715 23.8108 47.5168V21.672C23.8108 21.4864 23.8108 21.3008 23.8108 21.1152C23.8417 20.8987 23.8727 20.6821 23.9036 20.4656C23.9345 20.0944 24.0273 19.7232 24.182 19.352C24.4604 18.5787 25.0327 18.0528 25.8988 17.7744C26.7649 17.496 27.7393 17.3723 28.822 17.4032C29.5644 17.4341 30.3223 17.5115 31.0956 17.6352C31.8999 17.7589 32.6577 17.9136 33.3692 18.0992C34.1116 18.2539 34.7767 18.424 35.3644 18.6096C35.9521 18.7952 36.4316 18.9653 36.8028 19.12ZM36.8956 29.1424C37.0193 28.2763 36.9111 27.5493 36.5708 26.9616C36.2615 26.3429 35.8129 25.848 35.2252 25.4768C34.6375 25.0747 33.9569 24.7653 33.1836 24.5488C32.4412 24.3323 31.6988 24.1776 30.9564 24.0848C30.8636 24.0539 30.7089 24.0384 30.4924 24.0384C30.3068 24.0384 30.0903 24.0384 29.8428 24.0384C29.8428 25.0283 29.8428 25.9872 29.8428 26.9152C29.8737 27.8123 29.8737 28.7867 29.8428 29.8384V32.9472C30.5543 32.9163 31.2967 32.8389 32.07 32.7152C32.8743 32.5915 33.6167 32.3904 34.2972 32.112C34.9777 31.8336 35.55 31.4624 36.014 30.9984C36.5089 30.5344 36.8028 29.9157 36.8956 29.1424ZM51.8915 36.288C51.8606 36.4427 51.8296 36.5973 51.7987 36.752C51.7987 36.8757 51.7987 37.0149 51.7987 37.1696L51.5203 38.144C51.4584 38.2677 51.412 38.3451 51.3811 38.376L51.2419 38.6544C51.0872 38.9947 50.8088 39.2731 50.4067 39.4896C49.6643 39.8608 48.8755 39.9536 48.0403 39.768C47.5144 39.7061 47.0968 39.5515 46.7875 39.304C46.4782 39.0875 46.2616 38.8245 46.1379 38.5152C46.0142 38.2059 45.9214 37.8965 45.8595 37.5872C45.7667 37.2779 45.7203 36.9995 45.7203 36.752V10.768C45.7203 10.5515 45.7203 10.3659 45.7203 10.2112C45.7512 10.0256 45.7822 9.85546 45.8131 9.7008C45.844 9.48426 45.875 9.29866 45.9059 9.144C45.9678 8.98933 46.0296 8.8192 46.0915 8.6336C46.1843 8.32426 46.3544 8.0768 46.6019 7.8912C46.9731 7.6128 47.3288 7.45813 47.6691 7.4272C47.8856 7.36533 48.0867 7.3344 48.2723 7.3344C48.4579 7.30346 48.6744 7.288 48.9219 7.288C49.355 7.288 49.8499 7.41173 50.4067 7.6592C50.8398 7.90666 51.1491 8.24693 51.3347 8.68C51.644 9.29866 51.7987 9.87093 51.7987 10.3968C51.8296 10.7061 51.8451 11.1701 51.8451 11.7888C51.876 12.4075 51.8915 12.8715 51.8915 13.1808V13.3664C51.9534 14.3563 51.9843 15.3152 51.9843 16.2432C51.9843 17.1403 51.9688 18.1301 51.9379 19.2128C51.9379 20.2645 51.9224 21.2853 51.8915 22.2752C51.8915 23.2341 51.8915 24.1931 51.8915 25.152V34.896C51.8915 35.0197 51.8915 35.1435 51.8915 35.2672C51.9224 35.36 51.9379 35.4683 51.9379 35.592C51.9379 35.9013 51.9224 36.1333 51.8915 36.288ZM60.7467 19.0272C61.7675 18.5323 62.8347 18.1765 63.9483 17.96C65.0619 17.7435 66.16 17.6971 67.2427 17.8208C68.3563 17.9445 69.4235 18.2384 70.4443 18.7024C71.496 19.1664 72.4549 19.816 73.3211 20.6512C74.0325 21.3627 74.6512 22.2288 75.1771 23.2496C75.7029 24.2395 76.0896 25.2139 76.3371 26.1728C76.8629 27.8741 76.9403 29.5909 76.5691 31.3232C76.1979 33.0555 75.5637 34.664 74.6667 36.1488C74.2336 36.8293 73.6923 37.448 73.0427 38.0048C72.424 38.5307 71.7589 38.9637 71.0475 39.304C70.1195 39.7371 69.1141 40.0309 68.0315 40.1856C66.9488 40.3712 65.8971 40.4176 64.8763 40.3248C63.0203 40.232 61.3808 39.768 59.9579 38.9328C58.5659 38.0976 57.4368 37.0304 56.5707 35.7312C55.7355 34.432 55.1787 32.9627 54.9003 31.3232C54.6528 29.6528 54.7611 27.9515 55.2251 26.2192C55.72 24.3632 56.4315 22.8629 57.3595 21.7184C58.3184 20.5429 59.4475 19.6459 60.7467 19.0272ZM62.1387 25.2448C61.6747 25.6779 61.3189 26.2192 61.0715 26.8688C60.824 27.5184 60.6693 28.1989 60.6075 28.9104C60.5456 29.5909 60.592 30.2869 60.7467 30.9984C60.9323 31.6789 61.2107 32.2976 61.5819 32.8544C61.8912 33.3184 62.448 33.7051 63.2523 34.0144C64.0565 34.3237 64.8917 34.5093 65.7579 34.5712C66.7477 34.6331 67.6139 34.3701 68.3563 33.7824C69.0987 33.1637 69.6555 32.4059 70.0267 31.5088C70.4288 30.6117 70.6144 29.6373 70.5835 28.5856C70.5525 27.5339 70.2741 26.5749 69.7483 25.7088C69.3771 25.0901 68.8512 24.6416 68.1707 24.3632C67.5211 24.0539 66.8251 23.8992 66.0827 23.8992C65.3712 23.8683 64.6597 23.9765 63.9483 24.224C63.2368 24.4405 62.6336 24.7808 62.1387 25.2448ZM84.9994 20.4656C85.9274 20.0016 86.9018 19.6768 87.9226 19.4912C88.9434 19.2747 89.9487 19.2283 90.9386 19.352C91.9594 19.4448 92.9338 19.7077 93.8618 20.1408C94.7898 20.5429 95.6559 21.1307 96.4602 21.904C97.2644 22.7083 97.8831 23.5899 98.3162 24.5488C98.7492 25.5077 99.0586 26.5749 99.2442 27.7504C99.3679 28.5547 99.569 29.2971 99.8474 29.9776C100.126 30.6581 100.42 31.3387 100.729 32.0192C101.069 32.6997 101.379 33.3803 101.657 34.0608C101.966 34.7413 102.214 35.4528 102.399 36.1952C102.554 36.9067 102.492 37.6027 102.214 38.2832C101.966 38.9328 101.44 39.3349 100.636 39.4896C100.172 39.5824 99.7236 39.5515 99.2906 39.3968C98.8884 39.2112 98.5172 38.9637 98.177 38.6544C97.8367 38.3141 97.5274 37.9584 97.249 37.5872C97.0015 37.1851 96.7695 36.8139 96.553 36.4736C95.8415 37.4016 95.0682 38.1285 94.233 38.6544C93.3978 39.1493 92.3924 39.4741 91.217 39.6288C90.2271 39.7525 89.2836 39.7835 88.3866 39.7216C87.4895 39.6597 86.5306 39.4896 85.5098 39.2112C84.1796 38.8709 83.0815 38.2832 82.2154 37.448C81.3802 36.5819 80.7306 35.592 80.2666 34.4784C79.8335 33.3339 79.6015 32.112 79.5706 30.8128C79.5396 29.5136 79.6943 28.2299 80.0346 26.9616C80.4676 25.2912 81.1172 23.9301 81.9834 22.8784C82.8495 21.8267 83.8548 21.0224 84.9994 20.4656ZM86.1594 25.8944C85.7263 26.3275 85.386 26.8379 85.1386 27.4256C84.8911 28.0133 84.7364 28.632 84.6746 29.2816C84.6436 29.9312 84.7055 30.5808 84.8602 31.2304C85.0148 31.88 85.2623 32.4523 85.6026 32.9472C85.9119 33.3803 86.4378 33.7515 87.1802 34.0608C87.9226 34.3392 88.6959 34.5093 89.5002 34.5712C90.4282 34.6331 91.2324 34.3856 91.913 33.8288C92.6244 33.272 93.1503 32.576 93.4906 31.7408C93.8618 30.8747 94.0319 29.9621 94.001 29.0032C93.97 28.0133 93.7071 27.1163 93.2122 26.312C92.841 25.7243 92.346 25.2912 91.7274 25.0128C91.1396 24.7344 90.5055 24.5952 89.825 24.5952C89.1444 24.5643 88.4639 24.6725 87.7834 24.92C87.1338 25.1365 86.5924 25.4613 86.1594 25.8944ZM119.808 7.5664C120.396 7.41173 120.907 7.39626 121.34 7.52C121.804 7.6128 122.19 7.81386 122.5 8.1232C122.84 8.43253 123.087 8.8192 123.242 9.2832C123.428 9.7472 123.52 10.2576 123.52 10.8144C123.551 12.3611 123.551 13.5675 123.52 14.4336C123.52 15.2997 123.52 16.0576 123.52 16.7072V30.952C123.52 32.6224 123.52 34.0144 123.52 35.128C123.52 36.2416 123.459 37.1541 123.335 37.8656C123.242 38.5461 123.056 39.0565 122.778 39.3968C122.531 39.7371 122.144 39.9691 121.618 40.0928C121.092 40.2475 120.396 40.3248 119.53 40.3248C118.695 40.3248 117.643 40.3248 116.375 40.3248C113.034 40.3248 110.389 39.536 108.44 37.9584C106.523 36.3808 105.502 33.8752 105.378 30.4416C105.316 28.9568 105.502 27.5957 105.935 26.3584C106.368 25.1211 107.002 24.0693 107.837 23.2032C108.703 22.3061 109.755 21.6256 110.992 21.1616C112.261 20.6667 113.699 20.4347 115.308 20.4656H117.86V12.16C117.86 11.6651 117.86 11.1856 117.86 10.7216C117.86 10.2267 117.906 9.77813 117.999 9.376C118.092 8.94293 118.277 8.57173 118.556 8.2624C118.834 7.95307 119.252 7.72106 119.808 7.5664ZM111.735 33.3184C112.384 34.2155 113.56 34.7104 115.261 34.8032C115.601 34.8341 115.926 34.8496 116.236 34.8496C116.545 34.8187 116.823 34.7723 117.071 34.7104C117.349 34.6795 117.612 34.6331 117.86 34.5712V25.9872C116.777 25.8016 115.787 25.6933 114.89 25.6624C114.024 25.6005 113.158 25.9099 112.292 26.5904C111.828 26.9616 111.472 27.4411 111.224 28.0288C110.977 28.5856 110.838 29.1888 110.807 29.8384C110.776 30.4571 110.838 31.0757 110.992 31.6944C111.147 32.3131 111.395 32.8544 111.735 33.3184ZM139.791 13.1344C138.863 13.4128 138.074 13.32 137.424 12.856C136.775 12.3611 136.373 11.6651 136.218 10.768C136.125 10.1184 136.187 9.54613 136.404 9.0512C136.651 8.55626 136.976 8.18506 137.378 7.9376C137.811 7.69013 138.306 7.58186 138.863 7.6128C139.42 7.64373 139.976 7.86026 140.533 8.2624C141.059 8.6336 141.43 9.06666 141.647 9.5616C141.894 10.0256 141.972 10.4896 141.879 10.9536C141.817 11.4176 141.616 11.8507 141.276 12.2528C140.935 12.6549 140.44 12.9488 139.791 13.1344ZM141.647 21.672C141.647 22.0432 141.647 22.7392 141.647 23.76C141.647 24.7808 141.647 25.8944 141.647 27.1008C141.647 28.2763 141.647 29.4208 141.647 30.5344C141.647 31.648 141.647 32.4987 141.647 33.0864C141.616 34.0144 141.554 35.0043 141.461 36.056C141.399 37.1077 141.245 38.144 140.997 39.1648C140.781 40.1856 140.425 41.1291 139.93 41.9952C139.435 42.8923 138.755 43.6347 137.888 44.2224C136.899 44.872 135.816 45.2896 134.64 45.4752C133.465 45.6917 132.32 45.6299 131.207 45.2896C130.526 45.1349 129.861 44.9029 129.212 44.5936C128.593 44.2843 128.067 43.8821 127.634 43.3872C127.077 42.7995 126.675 42.088 126.428 41.2528C126.18 40.4485 126.335 39.6907 126.892 38.9792C127.263 38.5152 127.711 38.2213 128.237 38.0976C128.794 37.9429 129.335 38.0048 129.861 38.2832C130.356 38.5307 130.836 38.7781 131.3 39.0256C131.764 39.2731 132.228 39.4432 132.692 39.536C133.156 39.5979 133.62 39.5515 134.084 39.3968C134.548 39.2112 135.012 38.84 135.476 38.2832C135.692 38.0048 135.847 37.6027 135.94 37.0768C136.063 36.5509 136.141 35.9787 136.172 35.36C136.234 34.7104 136.264 34.0763 136.264 33.4576C136.264 32.808 136.264 32.2357 136.264 31.7408C136.264 31.0603 136.264 30.488 136.264 30.024C136.264 29.5291 136.264 29.0805 136.264 28.6784C136.264 28.2453 136.264 27.8123 136.264 27.3792C136.264 26.9152 136.264 26.3584 136.264 25.7088C136.264 25.3376 136.249 24.7808 136.218 24.0384C136.187 23.296 136.172 22.5227 136.172 21.7184C136.203 20.8832 136.264 20.1099 136.357 19.3984C136.481 18.6869 136.667 18.1765 136.914 17.8672C137.316 17.3413 137.827 17.0784 138.445 17.0784C139.095 17.0475 139.683 17.2021 140.208 17.5424C140.549 17.7589 140.812 18.0373 140.997 18.3776C141.183 18.6869 141.322 19.0272 141.415 19.3984C141.508 19.7696 141.57 20.1563 141.6 20.5584C141.631 20.9296 141.647 21.3008 141.647 21.672ZM160.764 33.6432C161.136 33.5504 161.507 33.4885 161.878 33.4576C162.28 33.4267 162.636 33.4731 162.945 33.5968C163.285 33.7205 163.564 33.9371 163.78 34.2464C163.997 34.5248 164.105 34.9269 164.105 35.4528C164.105 35.824 164.012 36.1797 163.827 36.52C163.641 36.8603 163.409 37.1696 163.131 37.448C162.852 37.7264 162.543 37.9739 162.203 38.1904C161.863 38.376 161.538 38.5307 161.228 38.6544C160.331 39.0565 159.295 39.3659 158.12 39.5824C156.975 39.7989 155.784 39.8763 154.547 39.8144C152.876 39.7525 151.268 39.4277 149.721 38.84C148.205 38.2213 147.015 37.216 146.148 35.824C145.344 34.4629 144.865 32.9472 144.71 31.2768C144.555 29.6064 144.633 28.0288 144.942 26.544C145.282 24.7499 145.855 23.296 146.659 22.1824C147.494 21.0379 148.484 20.1253 149.628 19.4448C151.02 18.6405 152.583 18.2229 154.315 18.192C156.047 18.1611 157.702 18.5013 159.28 19.2128C160.331 19.6768 161.275 20.3109 162.11 21.1152C162.945 21.8885 163.579 22.832 164.012 23.9456C164.136 24.224 164.229 24.5643 164.291 24.9664C164.384 25.3685 164.445 25.8016 164.476 26.2656C164.507 26.6987 164.507 27.1317 164.476 27.5648C164.445 27.9979 164.368 28.3845 164.244 28.7248C164.059 29.2816 163.827 29.7147 163.548 30.024C163.27 30.3333 162.914 30.5653 162.481 30.72C162.048 30.8747 161.522 30.9829 160.904 31.0448C160.316 31.0757 159.604 31.1067 158.769 31.1376C158.027 31.1685 157.331 31.184 156.681 31.184C156.032 31.184 155.367 31.184 154.686 31.184C154.005 31.1531 153.294 31.1376 152.552 31.1376C151.84 31.1067 151.036 31.0757 150.139 31.0448C150.046 31.6635 150.123 32.2048 150.371 32.6688C150.649 33.1019 151.02 33.4731 151.484 33.7824C151.948 34.0608 152.474 34.2773 153.062 34.432C153.65 34.5867 154.222 34.6795 154.779 34.7104C155.831 34.7723 156.836 34.6949 157.795 34.4784C158.754 34.2309 159.744 33.9525 160.764 33.6432ZM158.769 24.6416C158.181 23.9611 157.563 23.4661 156.913 23.1568C156.418 22.9403 155.892 22.8475 155.336 22.8784C154.81 22.8784 154.299 22.9557 153.804 23.1104C152.907 23.3269 152.149 23.7909 151.531 24.5024C151.469 24.5643 151.361 24.7189 151.206 24.9664C151.051 25.1829 150.897 25.4149 150.742 25.6624C150.618 25.9099 150.525 26.1419 150.464 26.3584C150.402 26.5749 150.433 26.6832 150.556 26.6832H159.651C159.62 26.2501 159.543 25.8944 159.419 25.616C159.295 25.3067 159.079 24.9819 158.769 24.6416Z" fill="black"/>
<path d="M36.457 55.1001C40.4532 50.7501 45.3374 44.9499 49.3336 47.8499C53.3298 50.7499 55.1058 55.8249 59.102 55.8249C63.0982 55.8249 64.4302 50.7499 67.5384 50.7499C70.6465 50.7499 73.7546 55.1001 76.8628 55.1001C79.9709 55.1001 83.5231 49.3001 87.9633 49.3001C92.4034 49.3001 92.8475 57.9999 96.8436 57.9999C100.84 57.9999 103.504 46.3999 108.832 46.3999C114.16 46.3999 116.38 55.1001 119.933 55.1001C123.485 55.1001 126.149 47.8499 129.257 46.3999" stroke="#F23333" stroke-width="4.97143" stroke-linecap="round"/>
</svg>
